HIERARCHY
ROOT Hips
{
	OFFSET 0.000000 87.230942 0.000000
	CHANNELS 6 Xposition Yposition Zposition Xrotation Yrotation Zrotation
	JOINT Pelvis
	{
		OFFSET 0.000000 0.000000 0.000000
		CHANNELS 3 Xrotation Yrotation Zrotation
		JOINT LeftUpLeg
		{
			OFFSET 12.017000 -9.376404 -2.439400
			CHANNELS 3 Xrotation Yrotation Zrotation
			JOINT LeftLeg
			{
				OFFSET -0.007312 -32.846973 2.110600
				CHANNELS 3 Xrotation Yrotation Zrotation
				JOINT LeftFoot
				{
					OFFSET 0.007312 -32.065170 -0.570400
					CHANNELS 3 Xrotation Yrotation Zrotation
					JOINT LeftToeBase
					{
						OFFSET 0.728300 -11.045900 13.180700
						CHANNELS 3 Xrotation Yrotation Zrotation
						End Site
						{
							OFFSET 0.000000 17.212589 0.000000
						}
					}
				}
				JOINT LeftPantLeg
				{
					OFFSET 0.002788 -16.709013 -3.143600
					CHANNELS 3 Xrotation Yrotation Zrotation
					End Site
					{
						OFFSET -0.605125 24.528742 0.000000
					}
				}
			}
			JOINT Left_Butt
			{
				OFFSET -6.630234 1.326584 -3.183700
				CHANNELS 3 Xrotation Yrotation Zrotation
				End Site
				{
					OFFSET -0.498041 20.188049 0.000000
				}
			}
		}
		JOINT RightUpLeg
		{
			OFFSET -11.717000 -9.376404 -2.439400
			CHANNELS 3 Xrotation Yrotation Zrotation
			JOINT RightLeg
			{
				OFFSET -0.003241 -32.846912 2.110600
				CHANNELS 3 Xrotation Yrotation Zrotation
				JOINT RightFoot
				{
					OFFSET 0.003241 -32.065136 -0.570500
					CHANNELS 3 Xrotation Yrotation Zrotation
					JOINT RightToeBase
					{
						OFFSET -0.728300 -11.045901 13.180700
						CHANNELS 3 Xrotation Yrotation Zrotation
						End Site
						{
							OFFSET 0.000000 17.212593 0.000000
						}
					}
				}
				JOINT RightPantLeg
				{
					OFFSET 0.008142 -16.708982 -3.143700
					CHANNELS 3 Xrotation Yrotation Zrotation
					End Site
					{
						OFFSET 0.605088 24.528715 0.000000
					}
				}
			}
			JOINT Right_Butt
			{
				OFFSET 6.630732 1.326584 -3.183700
				CHANNELS 3 Xrotation Yrotation Zrotation
				End Site
				{
					OFFSET 0.498015 20.188240 0.000000
				}
			}
		}
	}
	JOINT Spine
	{
		OFFSET -0.062400 7.848404 3.918300
		CHANNELS 3 Xrotation Yrotation Zrotation
		JOINT Spine1
		{
			OFFSET -0.072800 11.422302 0.713400
			CHANNELS 3 Xrotation Yrotation Zrotation
			JOINT Spine2
			{
				OFFSET -0.083200 13.054001 -1.931600
				CHANNELS 3 Xrotation Yrotation Zrotation
				JOINT Neck
				{
					OFFSET -0.092200 14.121796 -5.138800
					CHANNELS 3 Xrotation Yrotation Zrotation
					JOINT Head
					{
						OFFSET 0.000200 10.447403 -0.842000
						CHANNELS 3 Xrotation Yrotation Zrotation
						JOINT Visor
						{
							OFFSET 0.457100 25.671204 16.550400
							CHANNELS 3 Xrotation Yrotation Zrotation
							End Site
							{
								OFFSET 0.000000 26.061493 0.000000
							}
						}
						JOINT HairMidA
						{
							OFFSET 0.459400 31.585403 8.437400
							CHANNELS 3 Xrotation Yrotation Zrotation
							End Site
							{
								OFFSET 0.000000 26.061493 0.000000
							}
						}
						JOINT HairMidB
						{
							OFFSET 0.464000 33.309204 -8.389700
							CHANNELS 3 Xrotation Yrotation Zrotation
							End Site
							{
								OFFSET 0.000000 26.061493 0.000000
							}
						}
						JOINT HairMidC
						{
							OFFSET 0.466600 27.991196 -17.375099
							CHANNELS 3 Xrotation Yrotation Zrotation
							End Site
							{
								OFFSET 0.000000 26.061493 0.000000
							}
						}
						JOINT HairMidD
						{
							OFFSET 0.467700 17.888092 -21.169500
							CHANNELS 3 Xrotation Yrotation Zrotation
							End Site
							{
								OFFSET 0.000000 26.061493 0.000000
							}
						}
						JOINT HairMidE
						{
							OFFSET 5.325700 3.514603 -14.369699
							CHANNELS 3 Xrotation Yrotation Zrotation
							End Site
							{
								OFFSET 0.000000 26.061493 0.000000
							}
						}
						JOINT HairMidF
						{
							OFFSET -4.394100 3.514603 -14.372400
							CHANNELS 3 Xrotation Yrotation Zrotation
							End Site
							{
								OFFSET 0.000000 26.061493 0.000000
							}
						}
						JOINT HairLeftA
						{
							OFFSET 15.319900 25.746506 2.623300
							CHANNELS 3 Xrotation Yrotation Zrotation
							End Site
							{
								OFFSET 0.000000 26.061493 0.000000
							}
						}
						JOINT HairLeftB
						{
							OFFSET 12.619500 29.289398 -8.731499
							CHANNELS 3 Xrotation Yrotation Zrotation
							End Site
							{
								OFFSET 0.000000 26.061493 0.000000
							}
						}
						JOINT HairLeftC
						{
							OFFSET 15.714800 15.959900 2.909800
							CHANNELS 3 Xrotation Yrotation Zrotation
							End Site
							{
								OFFSET 0.000000 26.061493 0.000000
							}
						}
						JOINT HairLeftD
						{
							OFFSET 16.101700 18.437408 -7.553200
							CHANNELS 3 Xrotation Yrotation Zrotation
							End Site
							{
								OFFSET 0.000000 26.061493 0.000000
							}
						}
						JOINT HairLeftE
						{
							OFFSET 9.731900 17.915009 -18.316799
							CHANNELS 3 Xrotation Yrotation Zrotation
							End Site
							{
								OFFSET 0.000000 26.061493 0.000000
							}
						}
						JOINT HairLeftF
						{
							OFFSET 11.204300 4.953598 -9.668100
							CHANNELS 3 Xrotation Yrotation Zrotation
							End Site
							{
								OFFSET 0.000000 26.061493 0.000000
							}
						}
						JOINT HairRightA
						{
							OFFSET -14.397900 25.746307 2.615100
							CHANNELS 3 Xrotation Yrotation Zrotation
							End Site
							{
								OFFSET 0.000000 26.061493 0.000000
							}
						}
						JOINT HairRightB
						{
							OFFSET -11.691200 29.289200 -8.738199
							CHANNELS 3 Xrotation Yrotation Zrotation
							End Site
							{
								OFFSET 0.000000 26.061493 0.000000
							}
						}
						JOINT HairRightC
						{
							OFFSET -14.792900 15.959702 2.901400
							CHANNELS 3 Xrotation Yrotation Zrotation
							End Site
							{
								OFFSET 0.000000 26.061493 0.000000
							}
						}
						JOINT HairRightD
						{
							OFFSET -15.174000 18.437195 -7.561900
							CHANNELS 3 Xrotation Yrotation Zrotation
							End Site
							{
								OFFSET 0.000000 26.061493 0.000000
							}
						}
						JOINT HairRightE
						{
							OFFSET -8.798200 17.914902 -18.322001
							CHANNELS 3 Xrotation Yrotation Zrotation
							End Site
							{
								OFFSET 0.000000 26.061493 0.000000
							}
						}
						JOINT HairRightF
						{
							OFFSET -10.275200 4.953506 -9.674099
							CHANNELS 3 Xrotation Yrotation Zrotation
							End Site
							{
								OFFSET 0.000000 26.061493 0.000000
							}
						}
					}
				}
				JOINT LeftShoulder
				{
					OFFSET 5.133500 7.341202 -1.867600
					CHANNELS 3 Xrotation Yrotation Zrotation
					JOINT LeftArm
					{
						OFFSET 8.072663 0.936867 -2.176600
						CHANNELS 3 Xrotation Yrotation Zrotation
						JOINT LeftForeArm
						{
							OFFSET 31.271999 0.000000 0.000000
							CHANNELS 3 Xrotation Yrotation Zrotation
							JOINT LeftHand
							{
								OFFSET 31.771030 0.000000 0.000000
								CHANNELS 3 Xrotation Yrotation Zrotation
								JOINT LeftHandThumb1
								{
									OFFSET 2.886520 -2.557846 4.416640
									CHANNELS 3 Xrotation Yrotation Zrotation
									JOINT LeftHandThumb2
									{
										OFFSET 2.371025 -1.368912 1.368911
										CHANNELS 3 Xrotation Yrotation Zrotation
										JOINT LeftHandThumb3
										{
											OFFSET 2.243378 -1.295212 1.295213
											CHANNELS 3 Xrotation Yrotation Zrotation
											End Site
											{
												OFFSET -0.332611 2.876945 0.020015
											}
										}
									}
								}
								JOINT LeftHandIndex1
								{
									OFFSET 8.568985 -0.641945 3.119977
									CHANNELS 3 Xrotation Yrotation Zrotation
									JOINT LeftHandIndex2
									{
										OFFSET 3.348503 0.000000 0.000000
										CHANNELS 3 Xrotation Yrotation Zrotation
										JOINT LeftHandIndex3
										{
											OFFSET 3.314552 0.000000 0.000000
											CHANNELS 3 Xrotation Yrotation Zrotation
											End Site
											{
												OFFSET -1.032898 3.075485 0.678796
											}
										}
									}
								}
								JOINT LeftHandMiddle1
								{
									OFFSET 8.124603 0.000000 0.000000
									CHANNELS 3 Xrotation Yrotation Zrotation
									JOINT LeftHandMiddle2
									{
										OFFSET 4.166275 0.000000 0.000000
										CHANNELS 3 Xrotation Yrotation Zrotation
										JOINT LeftHandMiddle3
										{
											OFFSET 3.018135 0.000000 0.000000
											CHANNELS 3 Xrotation Yrotation Zrotation
											End Site
											{
												OFFSET -1.032700 2.767982 0.617226
											}
										}
									}
								}
								JOINT LeftHandRing1
								{
									OFFSET 8.571686 -0.031357 -2.884048
									CHANNELS 3 Xrotation Yrotation Zrotation
									JOINT LeftHandRing2
									{
										OFFSET 3.671181 0.000000 0.000000
										CHANNELS 3 Xrotation Yrotation Zrotation
										JOINT LeftHandRing3
										{
											OFFSET 2.728851 0.000000 0.000000
											CHANNELS 3 Xrotation Yrotation Zrotation
											End Site
											{
												OFFSET -0.815796 2.539223 0.577389
											}
										}
									}
								}
								JOINT LeftHandPinky1
								{
									OFFSET 7.854515 -0.675232 -5.213020
									CHANNELS 3 Xrotation Yrotation Zrotation
									JOINT LeftHandPinky2
									{
										OFFSET 3.068596 0.000000 0.000000
										CHANNELS 3 Xrotation Yrotation Zrotation
										JOINT LeftHandPinky3
										{
											OFFSET 2.396042 0.000000 0.000000
											CHANNELS 3 Xrotation Yrotation Zrotation
											End Site
											{
												OFFSET -0.524597 2.267998 0.567429
											}
										}
									}
								}
							}
							JOINT LeftSleeve
							{
								OFFSET 19.684509 -0.200119 0.476146
								CHANNELS 3 Xrotation Yrotation Zrotation
								End Site
								{
									OFFSET -0.031017 25.731133 -0.002868
								}
							}
						}
					}
				}
				JOINT RightShoulder
				{
					OFFSET -4.395900 7.341202 -1.870200
					CHANNELS 3 Xrotation Yrotation Zrotation
					JOINT RightArm
					{
						OFFSET -8.071453 0.936867 -2.181100
						CHANNELS 3 Xrotation Yrotation Zrotation
						JOINT RightForeArm
						{
							OFFSET -31.272011 0.000000 0.000000
							CHANNELS 3 Xrotation Yrotation Zrotation
							JOINT RightHand
							{
								OFFSET -31.771019 0.000000 0.000000
								CHANNELS 3 Xrotation Yrotation Zrotation
								JOINT RightHandThumb1
								{
									OFFSET -2.886520 -2.557808 4.416626
									CHANNELS 3 Xrotation Yrotation Zrotation
									JOINT RightHandThumb2
									{
										OFFSET -2.371056 -1.368927 1.368928
										CHANNELS 3 Xrotation Yrotation Zrotation
										JOINT RightHandThumb3
										{
											OFFSET -2.243362 -1.295204 1.295206
											CHANNELS 3 Xrotation Yrotation Zrotation
											End Site
											{
												OFFSET 0.332642 2.876938 0.020047
											}
										}
									}
								}
								JOINT RightHandIndex1
								{
									OFFSET -8.568993 -0.641953 3.120017
									CHANNELS 3 Xrotation Yrotation Zrotation
									JOINT RightHandIndex2
									{
										OFFSET -3.348518 0.000000 0.000000
										CHANNELS 3 Xrotation Yrotation Zrotation
										JOINT RightHandIndex3
										{
											OFFSET -3.314552 0.000000 0.000000
											CHANNELS 3 Xrotation Yrotation Zrotation
											End Site
											{
												OFFSET 1.032898 3.075478 0.678804
											}
										}
									}
								}
								JOINT RightHandMiddle1
								{
									OFFSET -8.124588 0.000000 0.000000
									CHANNELS 3 Xrotation Yrotation Zrotation
									JOINT RightHandMiddle2
									{
										OFFSET -4.166275 0.000000 0.000000
										CHANNELS 3 Xrotation Yrotation Zrotation
										JOINT RightHandMiddle3
										{
											OFFSET -3.018097 0.000000 0.000000
											CHANNELS 3 Xrotation Yrotation Zrotation
											End Site
											{
												OFFSET 1.032700 2.767937 0.617197
											}
										}
									}
								}
								JOINT RightHandRing1
								{
									OFFSET -8.571747 -0.031349 -2.884061
									CHANNELS 3 Xrotation Yrotation Zrotation
									JOINT RightHandRing2
									{
										OFFSET -3.671204 0.000000 0.000000
										CHANNELS 3 Xrotation Yrotation Zrotation
										JOINT RightHandRing3
										{
											OFFSET -2.728874 0.000000 0.000000
											CHANNELS 3 Xrotation Yrotation Zrotation
											End Site
											{
												OFFSET 0.815804 2.539261 0.577413
											}
										}
									}
								}
								JOINT RightHandPinky1
								{
									OFFSET -7.854561 -0.675247 -5.212970
									CHANNELS 3 Xrotation Yrotation Zrotation
									JOINT RightHandPinky2
									{
										OFFSET -3.068550 0.000000 0.000000
										CHANNELS 3 Xrotation Yrotation Zrotation
										JOINT RightHandPinky3
										{
											OFFSET -2.395981 0.000000 0.000000
											CHANNELS 3 Xrotation Yrotation Zrotation
											End Site
											{
												OFFSET 0.524605 2.267952 0.567413
											}
										}
									}
								}
							}
							JOINT RightSleeve
							{
								OFFSET -19.684753 -0.200165 0.476065
								CHANNELS 3 Xrotation Yrotation Zrotation
								End Site
								{
									OFFSET 0.031342 25.731255 -0.002917
								}
							}
						}
					}
				}
				JOINT Hood
				{
					OFFSET 0.369700 14.447800 -5.317800
					CHANNELS 3 Xrotation Yrotation Zrotation
					JOINT Hood1
					{
						OFFSET 0.001700 -5.553802 -5.895100
						CHANNELS 3 Xrotation Yrotation Zrotation
						JOINT Hood2
						{
							OFFSET -0.000200 -8.380501 0.763600
							CHANNELS 3 Xrotation Yrotation Zrotation
							End Site
							{
								OFFSET 0.000000 8.415215 0.000000
							}
						}
					}
				}
				JOINT Left_Breast
				{
					OFFSET 5.682500 3.120102 3.188800
					CHANNELS 3 Xrotation Yrotation Zrotation
					End Site
					{
						OFFSET 0.000000 10.528564 0.000000
					}
				}
				JOINT Right_Breast
				{
					OFFSET -4.947600 3.120102 3.185900
					CHANNELS 3 Xrotation Yrotation Zrotation
					End Site
					{
						OFFSET 0.000000 10.528564 0.000000
					}
				}
				JOINT Whistle
				{
					OFFSET 0.368200 11.471298 0.095400
					CHANNELS 3 Xrotation Yrotation Zrotation
					JOINT Whistle1
					{
						OFFSET -0.002000 -6.349899 7.479800
						CHANNELS 3 Xrotation Yrotation Zrotation
						JOINT Whistle2
						{
							OFFSET -0.001300 -8.217598 4.717600
							CHANNELS 3 Xrotation Yrotation Zrotation
							End Site
							{
								OFFSET 0.000000 9.475479 0.000000
							}
						}
					}
				}
			}
		}
		JOINT Belly
		{
			OFFSET 0.212400 1.593002 3.163700
			CHANNELS 3 Xrotation Yrotation Zrotation
			End Site
			{
				OFFSET 0.000000 7.496635 0.000000
			}
		}
	}
	JOINT FitGrandmaFacialAnim_Joint
	{
		OFFSET 1.150000 -86.211197 -1.220100
		CHANNELS 3 Xrotation Yrotation Zrotation
		End Site
		{
			OFFSET 0.000000 31.666618 0.000000
		}
	}
}
MOTION
Frames: 4
Frame Time: 0.016667
-1.905551 68.356903 -73.895493 35.324434 -68.770962 27.444945 -0.000000 -0.000000 -0.000000 -58.236549 -19.280335 25.251213 44.352448 -2.447870 10.625863 13.431888 0.973289 -9.675152 0.000001 -0.000001 0.000001 0.000001 0.000001 -0.000002 -0.000002 -0.000000 -0.000004 -21.824874 4.448698 -22.973445 52.907813 -5.755543 -2.689171 -16.160646 -30.846965 35.657225 -0.000000 -0.000000 -0.000000 -0.000003 -0.000001 -0.000000 0.000001 0.000001 0.000000 0.706888 9.493726 -3.115887 -1.602552 6.808469 -2.710776 -1.615872 2.233982 1.483569 13.856776 5.273896 -5.005348 3.706271 16.403020 6.692209 0.000001 0.000004 -0.000001 0.000001 0.000004 -0.000001 0.000001 0.000004 -0.000001 0.000001 0.000004 -0.000001 0.000001 0.000004 -0.000001 0.000001 0.000004 -0.000001 0.000001 0.000004 -0.000001 0.000001 0.000004 -0.000001 0.000001 0.000004 -0.000001 0.000001 0.000004 -0.000001 0.000001 0.000004 -0.000001 0.000001 0.000004 -0.000001 0.000001 0.000004 -0.000001 0.000001 0.000004 -0.000001 0.000001 0.000004 -0.000001 0.000001 0.000004 -0.000001 0.000001 0.000004 -0.000001 0.000001 0.000004 -0.000001 0.000001 0.000004 -0.000001 4.053402 5.979541 -12.991227 -54.011616 -35.171673 -50.958576 -0.000424 -82.344767 -0.000397 -61.076836 33.044404 41.897760 -14.557457 10.837979 12.229970 0.749559 -4.257814 13.305509 -0.000000 -0.000002 -0.000001 -0.809523 2.578141 -31.496437 3.095879 5.163749 -61.866959 0.000001 0.000000 -0.000003 -2.430836 1.729202 -41.460922 2.952348 5.084709 -60.259931 -0.000001 0.000001 0.000002 -6.054114 -0.166589 -49.857584 3.046260 5.137069 -61.313959 -0.000000 0.000002 -0.000001 -8.298285 -6.522672 -38.520156 2.848772 5.024361 -59.084435 -0.000002 -0.000000 -0.000001 -0.000001 0.000001 -0.000001 -14.532554 3.553463 -4.417811 79.542252 138.739078 -57.059766 -0.000001 34.452943 -0.000005 -53.561380 -12.490259 -34.496649 8.377124 -4.904141 11.021989 21.620195 -18.183902 -18.379194 0.000001 -0.000000 -0.000003 0.558920 -4.406576 25.436663 1.653042 -3.560357 49.799094 -0.000001 0.000001 -0.000000 10.969811 -12.875549 52.800835 6.387585 -4.324411 111.833672 -0.000001 0.000002 -0.000005 3.705082 -7.151323 57.622433 5.328213 -4.608679 98.293423 0.000003 -0.000001 -0.000001 0.474829 -5.173000 58.987672 3.194302 -4.421912 71.674154 0.000001 -0.000000 0.000002 -0.000001 0.000000 -0.000001 -0.000000 -0.000000 0.000000 -0.000000 -0.000000 0.000000 -0.000000 -0.000000 0.000000 -0.000000 -0.000000 0.000000 -0.000000 -0.000000 0.000000 -0.000001 -0.000000 0.000001 -0.000000 -0.000000 0.000001 -0.000000 -0.000000 0.000001 -0.000000 0.000000 -0.000000 -0.000000 -0.000000 -0.000000 
-1.533864 69.011002 -76.688210 34.284818 -67.929920 25.916823 0.000000 -0.000002 -0.000000 -59.088807 -17.917888 24.206592 41.428243 -2.121708 10.596285 16.195637 0.566851 -7.986511 -0.000001 0.000000 0.000001 0.000001 -0.000001 -0.000002 0.000000 0.000001 -0.000002 -23.894787 2.649472 -22.214425 54.893172 -6.570148 0.137064 -18.627944 -28.593038 34.664091 -0.000000 0.000000 -0.000000 -0.000003 -0.000001 -0.000002 0.000001 -0.000002 0.000005 0.651847 8.487590 -2.241696 -1.626989 6.164439 -2.467199 -1.632766 1.585595 1.723307 13.644005 5.603234 -5.278001 3.496001 17.228927 6.531496 0.000003 -0.000003 0.000000 0.000003 -0.000003 0.000000 0.000003 -0.000003 0.000000 0.000003 -0.000003 0.000000 0.000003 -0.000003 0.000000 0.000003 -0.000003 0.000000 0.000003 -0.000003 0.000000 0.000003 -0.000003 0.000000 0.000003 -0.000003 0.000000 0.000003 -0.000003 0.000000 0.000003 -0.000003 0.000000 0.000003 -0.000003 0.000000 0.000003 -0.000003 0.000000 0.000003 -0.000003 0.000000 0.000003 -0.000003 0.000000 0.000003 -0.000003 0.000000 0.000003 -0.000003 0.000000 0.000003 -0.000003 0.000000 0.000003 -0.000003 0.000000 3.999908 6.042615 -12.807241 -53.296031 -34.622997 -51.004417 -0.000263 -82.387777 -0.000232 -60.568232 31.239171 41.384171 -14.557450 10.837978 12.229969 0.749562 -4.257814 13.305509 -0.000000 0.000001 0.000002 -0.809522 2.578140 -31.496434 3.095878 5.163749 -61.866959 -0.000000 -0.000000 0.000002 -2.430838 1.729199 -41.460918 2.952348 5.084709 -60.259931 -0.000001 0.000001 0.000001 -6.054114 -0.166589 -49.857581 3.046259 5.137067 -61.313952 0.000004 0.000001 0.000001 -8.298281 -6.522675 -38.520150 2.848771 5.024364 -59.084428 0.000001 0.000001 -0.000001 0.000002 -0.000002 -0.000003 -14.624217 3.283234 -4.768789 77.652694 137.993495 -55.679938 0.000020 33.172210 -0.000011 -53.616268 -11.197044 -33.722669 8.377125 -4.904141 11.021989 21.620197 -18.183900 -18.379194 0.000000 0.000002 -0.000003 0.558919 -4.406576 25.436661 1.653039 -3.560355 49.799100 -0.000000 0.000000 0.000001 10.969811 -12.875551 52.800825 6.387583 -4.324410 111.833679 0.000000 -0.000002 -0.000000 3.705081 -7.151327 57.622433 5.328210 -4.608680 98.293423 0.000001 -0.000001 -0.000003 0.474827 -5.173004 58.987665 3.194301 -4.421909 71.674154 -0.000003 -0.000000 0.000001 0.000002 -0.000000 0.000000 0.000001 -0.000001 -0.000000 0.000001 -0.000001 -0.000000 0.000001 -0.000001 -0.000000 0.000001 -0.000001 -0.000000 0.000001 -0.000001 -0.000000 0.000001 -0.000001 -0.000001 0.000000 0.000001 -0.000000 0.000000 0.000001 -0.000000 -0.000000 -0.000001 0.000000 0.000000 -0.000002 -0.000000 
-1.129270 69.691711 -79.392975 33.303671 -66.988508 24.313795 -0.000000 -0.000000 -0.000000 -60.511692 -16.163057 22.787359 39.720227 -2.140270 10.540234 17.555634 -0.069736 -7.754977 0.000000 0.000002 0.000002 -0.000001 0.000000 -0.000005 -0.000002 -0.000001 -0.000000 -25.563093 0.304246 -21.798569 56.141372 -7.683258 3.353102 -20.729320 -25.345193 33.577893 0.000000 -0.000000 -0.000000 -0.000002 0.000002 0.000001 0.000002 -0.000000 0.000001 0.638422 7.582865 -1.237323 -1.619449 5.518463 -2.231738 -1.616522 0.925566 1.956719 13.288387 5.956515 -5.383662 2.808274 18.062140 6.550443 -0.000003 -0.000001 0.000000 -0.000003 -0.000001 0.000000 -0.000003 -0.000001 0.000000 -0.000003 -0.000001 0.000000 -0.000003 -0.000001 0.000000 -0.000003 -0.000001 0.000000 -0.000003 -0.000001 0.000000 -0.000003 -0.000001 0.000000 -0.000003 -0.000001 0.000000 -0.000003 -0.000001 0.000000 -0.000003 -0.000001 0.000000 -0.000003 -0.000001 0.000000 -0.000003 -0.000001 0.000000 -0.000003 -0.000001 0.000000 -0.000003 -0.000001 0.000000 -0.000003 -0.000001 0.000000 -0.000003 -0.000001 0.000000 -0.000003 -0.000001 0.000000 -0.000003 -0.000001 0.000000 3.900272 5.904406 -12.522479 -52.948685 -33.982810 -50.979866 0.000189 -82.394081 0.000173 -59.827416 29.409162 40.747027 -14.557452 10.837979 12.229968 0.749561 -4.257818 13.305510 -0.000001 0.000001 0.000001 -0.809522 2.578141 -31.496441 3.095876 5.163748 -61.866959 0.000000 0.000000 -0.000001 -2.430837 1.729203 -41.460925 2.952348 5.084710 -60.259931 -0.000001 0.000002 0.000003 -6.054111 -0.166587 -49.857587 3.046258 5.137070 -61.313952 0.000000 0.000002 0.000004 -8.298285 -6.522669 -38.520156 2.848769 5.024364 -59.084435 0.000001 0.000001 0.000001 0.000005 -0.000001 -0.000001 -14.701922 3.010191 -5.023191 75.541155 137.547716 -54.314661 -0.000009 31.733168 0.000015 -53.364989 -9.666803 -32.827607 8.377125 -4.904141 11.021997 21.620190 -18.183897 -18.379192 -0.000001 -0.000001 -0.000002 0.558920 -4.406574 25.436659 1.653042 -3.560358 49.799090 -0.000001 -0.000001 0.000001 10.969808 -12.875549 52.800835 6.387582 -4.324412 111.833672 -0.000002 0.000001 -0.000003 3.705082 -7.151325 57.622440 5.328210 -4.608680 98.293423 -0.000000 -0.000000 -0.000001 0.474830 -5.173003 58.987665 3.194302 -4.421908 71.674154 -0.000001 0.000001 0.000001 -0.000007 -0.000001 0.000001 -0.000000 0.000000 0.000001 -0.000000 0.000000 0.000001 -0.000000 0.000000 0.000001 -0.000000 0.000000 0.000001 -0.000000 0.000000 0.000001 -0.000000 0.000000 0.000000 -0.000000 0.000000 -0.000000 -0.000000 0.000000 -0.000000 0.000001 0.000000 -0.000000 -0.000000 -0.000000 -0.000000 
-0.755135 70.418320 -82.014191 32.691430 -66.192442 23.150841 -0.000000 -0.000002 -0.000001 -62.363582 -14.235803 20.927689 39.999896 -2.481378 10.422671 17.547004 -0.663681 -8.688142 -0.000001 -0.000001 0.000002 -0.000002 -0.000001 0.000000 0.000002 0.000002 -0.000001 -27.861113 -2.539075 -20.186079 57.682471 -7.870779 3.791280 -22.492892 -23.961813 30.698893 0.000000 -0.000000 -0.000000 0.000001 0.000001 0.000001 0.000002 -0.000000 0.000001 0.666971 6.896062 -0.401384 -1.604753 4.974525 -2.071099 -1.594768 0.362929 2.116386 12.920235 6.278298 -5.327306 1.884701 18.797642 6.755083 0.000001 -0.000000 -0.000000 0.000001 -0.000000 -0.000000 0.000001 -0.000000 -0.000000 0.000001 -0.000000 -0.000000 0.000001 -0.000000 -0.000000 0.000001 -0.000000 -0.000000 0.000001 -0.000000 -0.000000 0.000001 -0.000000 -0.000000 0.000001 -0.000000 -0.000000 0.000001 -0.000000 -0.000000 0.000001 -0.000000 -0.000000 0.000001 -0.000000 -0.000000 0.000001 -0.000000 -0.000000 0.000001 -0.000000 -0.000000 0.000001 -0.000000 -0.000000 0.000001 -0.000000 -0.000000 0.000001 -0.000000 -0.000000 0.000001 -0.000000 -0.000000 0.000001 -0.000000 -0.000000 3.777935 5.614924 -12.196083 -52.876487 -33.357141 -50.874490 0.000115 -82.402886 0.000132 -59.121161 27.942217 40.166673 -14.557454 10.837981 12.229967 0.749560 -4.257813 13.305511 0.000000 -0.000000 -0.000001 -0.809521 2.578141 -31.496441 3.095877 5.163749 -61.866966 0.000002 -0.000001 0.000004 -2.430837 1.729203 -41.460925 2.952346 5.084709 -60.259931 0.000000 0.000000 0.000002 -6.054113 -0.166587 -49.857581 3.046260 5.137068 -61.313952 0.000004 -0.000002 -0.000003 -8.298283 -6.522673 -38.520160 2.848771 5.024365 -59.084435 0.000002 -0.000001 -0.000002 -0.000003 0.000001 -0.000000 -14.751597 2.757338 -5.115946 73.753954 137.448131 -53.227627 0.000010 30.448830 -0.000003 -52.877880 -8.315538 -32.047750 8.377125 -4.904140 11.021990 21.620194 -18.183897 -18.379196 -0.000002 0.000001 -0.000000 0.558921 -4.406575 25.436659 1.653040 -3.560356 49.799097 -0.000001 0.000001 -0.000000 10.969813 -12.875550 52.800832 6.387585 -4.324411 111.833679 0.000000 0.000001 -0.000005 3.705083 -7.151327 57.622433 5.328211 -4.608680 98.293423 0.000001 0.000000 -0.000004 0.474829 -5.172999 58.987672 3.194300 -4.421908 71.674154 -0.000001 -0.000000 0.000001 -0.000004 0.000000 -0.000000 0.000000 0.000000 -0.000000 0.000000 0.000000 -0.000000 0.000000 0.000000 -0.000000 0.000000 0.000000 -0.000000 0.000000 0.000000 -0.000000 0.000000 0.000000 0.000000 0.000000 0.000000 -0.000000 0.000000 0.000000 -0.000000 0.000002 -0.000001 0.000000 -0.000000 -0.000002 -0.000001 
